<svg width="35" height="36" viewBox="0 0 35 36" fill="none" xmlns="http://www.w3.org/2000/svg">
<g id="&#237;&#148;&#132;&#235;&#161;&#156;&#237;&#149;&#132; &#236;&#157;&#180;&#235;&#175;&#184;&#236;&#167;&#128;">
<path id="Rectangle 1" d="M0 18C0 8.33502 7.83502 0.5 17.5 0.5C27.165 0.5 35 8.33502 35 18C35 27.665 27.165 35.5 17.5 35.5C7.83502 35.5 0 27.665 0 18Z" fill="#ABBFDA"/>
<ellipse id="Ellipse 46" cx="17.4999" cy="14.3542" rx="7.29167" ry="8.02083" fill="black"/>
<path id="Intersect" d="M17.4406 23.833C22.7775 23.833 27.3967 26.4665 29.6275 30.2994C29.6841 30.3967 29.6664 30.5197 29.5854 30.5979C26.4382 33.6324 22.1577 35.5 17.4406 35.5C12.7236 35.4999 8.44378 33.6323 5.29676 30.5979C5.21573 30.5197 5.19805 30.3967 5.25467 30.2994C7.48533 26.4666 12.1039 23.8332 17.4406 23.833Z" fill="black"/>
</g>
</svg>
