<svg width="25" height="24" viewBox="0 0 25 24" fill="none" xmlns="http://www.w3.org/2000/svg">
<g id="directions_bike" clip-path="url(#clip0_125_1361)">
<path id="Vector" d="M16 5.5C17.1 5.5 18 4.6 18 3.5C18 2.4 17.1 1.5 16 1.5C14.9 1.5 14 2.4 14 3.5C14 4.6 14.9 5.5 16 5.5ZM5.5 12C2.7 12 0.5 14.2 0.5 17C0.5 19.8 2.7 22 5.5 22C8.3 22 10.5 19.8 10.5 17C10.5 14.2 8.3 12 5.5 12ZM5.5 20.5C3.6 20.5 2 18.9 2 17C2 15.1 3.6 13.5 5.5 13.5C7.4 13.5 9 15.1 9 17C9 18.9 7.4 20.5 5.5 20.5ZM11.3 10.5L13.7 8.1L14.5 8.9C15.8 10.2 17.5 11 19.6 11V9C18.1 9 16.9 8.4 16 7.5L14.1 5.6C13.6 5.2 13.1 5 12.5 5C11.9 5 11.4 5.2 11.1 5.6L8.3 8.4C7.9 8.8 7.7 9.3 7.7 9.8C7.7 10.4 7.9 10.9 8.3 11.2L11.5 14V19H13.5V12.8L11.3 10.5ZM19.5 12C16.7 12 14.5 14.2 14.5 17C14.5 19.8 16.7 22 19.5 22C22.3 22 24.5 19.8 24.5 17C24.5 14.2 22.3 12 19.5 12ZM19.5 20.5C17.6 20.5 16 18.9 16 17C16 15.1 17.6 13.5 19.5 13.5C21.4 13.5 23 15.1 23 17C23 18.9 21.4 20.5 19.5 20.5Z" fill="#F7F7F6"/>
</g>
<defs>
<clipPath id="clip0_125_1361">
<rect width="24" height="24" fill="white" transform="translate(0.5)"/>
</clipPath>
</defs>
</svg>
