<svg width="16" height="16" viewBox="0 0 16 16" fill="none" xmlns="http://www.w3.org/2000/svg">
<path id="Star 1" d="M6.30725 3.17397C6.94932 1.57328 7.27036 0.772936 7.79193 0.662012C7.92908 0.632845 8.07083 0.632845 8.20797 0.662012C8.72955 0.772936 9.05059 1.57328 9.69266 3.17396C10.0578 4.08425 10.2404 4.53939 10.582 4.84895C10.6778 4.93578 10.7818 5.01311 10.8926 5.07986C11.2874 5.31784 11.7803 5.36198 12.7661 5.45027C14.4348 5.59972 15.2692 5.67444 15.524 6.15019C15.5768 6.24872 15.6127 6.3554 15.6302 6.46579C15.7146 6.99882 15.1012 7.55688 13.8744 8.673L13.5338 8.98294C12.9602 9.50475 12.6735 9.76565 12.5076 10.0913C12.4081 10.2866 12.3414 10.4969 12.3101 10.7139C12.258 11.0756 12.342 11.4541 12.5099 12.211L12.5699 12.4815C12.8711 13.839 13.0217 14.5178 12.8337 14.8514C12.6649 15.1511 12.3538 15.343 12.0102 15.3594C11.6277 15.3777 11.0887 14.9385 10.0107 14.0601C9.30053 13.4814 8.94542 13.192 8.55121 13.079C8.19097 12.9757 7.80894 12.9757 7.44869 13.079C7.05448 13.192 6.69938 13.4814 5.98917 14.0601C4.91119 14.9385 4.37221 15.3777 3.98968 15.3594C3.64609 15.343 3.33504 15.1511 3.16617 14.8514C2.97818 14.5178 3.12878 13.839 3.42997 12.4815L3.48998 12.211C3.65794 11.4541 3.74191 11.0756 3.6898 10.7139C3.65854 10.4969 3.59182 10.2866 3.49232 10.0913C3.32645 9.76565 3.03968 9.50475 2.46613 8.98294L2.12546 8.673C0.898669 7.55688 0.285275 6.99882 0.369748 6.46579C0.387243 6.3554 0.423123 6.24872 0.475894 6.15019C0.730693 5.67444 1.56507 5.59972 3.23384 5.45027C4.21962 5.36198 4.71251 5.31784 5.10735 5.07986C5.2181 5.01311 5.32211 4.93578 5.41793 4.84895C5.75954 4.53939 5.94211 4.08425 6.30725 3.17397Z" fill="#FAFFEE"/>
</svg>
