<svg width="25" height="24" viewBox="0 0 25 24" fill="none" xmlns="http://www.w3.org/2000/svg">
<g id="directions_bus" clip-path="url(#clip0_125_1367)">
<path id="Vector" d="M12.5 2C8.08 2 4.5 2.5 4.5 6V16C4.5 16.88 4.89 17.67 5.5 18.22V20C5.5 20.55 5.95 21 6.5 21H7.5C8.05 21 8.5 20.55 8.5 20V19H16.5V20C16.5 20.55 16.95 21 17.5 21H18.5C19.05 21 19.5 20.55 19.5 20V18.22C20.11 17.67 20.5 16.88 20.5 16V6C20.5 2.5 16.92 2 12.5 2ZM18.16 4.99H6.84C7.39 4.46 8.81 4 12.5 4C16.19 4 17.61 4.46 18.16 4.99ZM18.5 6.99V10H6.5V6.99H18.5ZM18.16 16.73L17.87 17H7.13L6.84 16.73C6.71 16.62 6.5 16.37 6.5 16V12H18.5V16C18.5 16.37 18.29 16.62 18.16 16.73Z" fill="white"/>
<path id="Vector_2" d="M9 16C9.82843 16 10.5 15.3284 10.5 14.5C10.5 13.6716 9.82843 13 9 13C8.17157 13 7.5 13.6716 7.5 14.5C7.5 15.3284 8.17157 16 9 16Z" fill="white"/>
<path id="Vector_3" d="M16 16C16.8284 16 17.5 15.3284 17.5 14.5C17.5 13.6716 16.8284 13 16 13C15.1716 13 14.5 13.6716 14.5 14.5C14.5 15.3284 15.1716 16 16 16Z" fill="white"/>
</g>
<defs>
<clipPath id="clip0_125_1367">
<rect width="24" height="24" fill="white" transform="translate(0.5)"/>
</clipPath>
</defs>
</svg>
