<svg width="25" height="24" viewBox="0 0 25 24" fill="none" xmlns="http://www.w3.org/2000/svg">
<g clip-path="url(#clip0_2173_467)">
<path d="M19.42 6.01C19.22 5.42 18.66 5 18 5H7C6.34 5 5.79 5.42 5.58 6.01L3.5 12V20C3.5 20.55 3.95 21 4.5 21H5.5C6.05 21 6.5 20.55 6.5 20V19H18.5V20C18.5 20.55 18.95 21 19.5 21H20.5C21.05 21 21.5 20.55 21.5 20V12L19.42 6.01ZM7.35 7H17.64L18.72 10.11H6.27L7.35 7ZM19.5 17H5.5V12H19.5V17Z" fill="#F7F7F6"/>
<path d="M8 16C8.82843 16 9.5 15.3284 9.5 14.5C9.5 13.6716 8.82843 13 8 13C7.17157 13 6.5 13.6716 6.5 14.5C6.5 15.3284 7.17157 16 8 16Z" fill="#F7F7F6"/>
<path d="M17 16C17.8284 16 18.5 15.3284 18.5 14.5C18.5 13.6716 17.8284 13 17 13C16.1716 13 15.5 13.6716 15.5 14.5C15.5 15.3284 16.1716 16 17 16Z" fill="#F7F7F6"/>
</g>
<defs>
<clipPath id="clip0_2173_467">
<rect width="24" height="24" fill="white" transform="translate(0.5)"/>
</clipPath>
</defs>
</svg>
