<svg width="36" height="28" viewBox="0 0 36 28" fill="none" xmlns="http://www.w3.org/2000/svg">
<path d="M29.5 0.388672C32.3284 0.388672 33.7424 0.388898 34.6211 1.26758C35.4998 2.14626 35.5 3.56024 35.5 6.38867V21.6113C35.5 24.4397 35.4998 25.8537 34.6211 26.7324C33.7424 27.6111 32.3284 27.6113 29.5 27.6113H6.5C3.6716 27.6113 2.25759 27.6111 1.37891 26.7324C0.500232 25.8537 0.5 24.4397 0.5 21.6113V6.38867C0.5 3.56024 0.500227 2.14626 1.37891 1.26758C2.25759 0.388898 3.67157 0.388672 6.5 0.388672H29.5ZM30.498 7.6123C30.1917 7.1529 29.5708 7.02864 29.1113 7.33496L18 14.7432L6.8877 7.33496L6.7998 7.28223C6.35187 7.04528 5.78814 7.18157 5.50098 7.6123C5.21401 8.04318 5.30499 8.6163 5.69629 8.93848L5.77832 8.99902L16.8906 16.4072L17.0186 16.4863C17.6705 16.8535 18.4797 16.8268 19.1094 16.4072L30.2207 8.99902C30.6802 8.69269 30.8043 8.07182 30.498 7.6123Z" fill="#222222"/>
</svg>
