<?xml version="1.0" encoding="UTF-8"?>
<svg version="1.1" xmlns="http://www.w3.org/2000/svg" width="400" height="400">
<path d="M0 0 C6.6 0 13.2 0 20 0 C20 4.62 20 9.24 20 14 C21.94434937 13.59890015 21.94434937 13.59890015 23.92797852 13.18969727 C28.75631791 12.19424192 33.58522582 11.2015686 38.41430664 10.2097168 C40.50072486 9.78078351 42.58699001 9.35110496 44.6730957 8.9206543 C47.67879543 8.30058984 50.68504295 7.68324432 53.69140625 7.06640625 C55.08088219 6.77885216 55.08088219 6.77885216 56.49842834 6.48548889 C65.18175238 4.70903274 73.51436935 3.77335882 82.375 3.6875 C83.86 3.64399414 83.86 3.64399414 85.375 3.59960938 C92.50776297 3.53844452 99.12549703 4.46520887 104.5871582 9.44799805 C109.55456288 15.15723535 110.43172125 19.53715783 110.33203125 26.94140625 C109.8415763 31.45936187 108.29760258 35.70239742 105 39 C107.31 39.33 109.62 39.66 112 40 C112 45.28 112 50.56 112 56 C82.96 56 53.92 56 24 56 C24 50.72 24 45.44 24 40 C25.19375244 39.99589111 26.38750488 39.99178223 27.61743164 39.98754883 C32.11882573 39.96549621 36.61937768 39.91094391 41.12036133 39.84741211 C43.05484847 39.82445703 44.9894566 39.80989019 46.92407227 39.80444336 C63.48138092 39.74869485 78.70301619 38.08957938 92 27 C92.495 25.515 92.495 25.515 93 24 C92.505 23.01 92.505 23.01 92 22 C85.62531121 20.54770995 79.21488132 20.99015061 72.8125 21.9375 C71.92481934 22.06229736 71.03713867 22.18709473 70.12255859 22.31567383 C53.63110882 24.80085305 37.30842231 28.54287724 21 32 C20.67 39.92 20.34 47.84 20 56 C13.4 56 6.8 56 0 56 C0 48.41 0 40.82 0 33 C-2.97 32.34 -5.94 31.68 -9 31 C-12.00109379 28.50973069 -13.84336244 26.23495634 -16 23 C-16 21.02 -16 19.04 -16 17 C-11.05 16.67 -6.1 16.34 -1 16 C-0.67 10.72 -0.34 5.44 0 0 Z " fill="#FF8C8C" transform="translate(224,200)"/>
<path d="M0 0 C36.96 0 73.92 0 112 0 C112 6.6 112 13.2 112 20 C83.62 20 55.24 20 26 20 C26.44851764 28.76129868 26.44851764 28.76129868 30 35 C57.06 35.33 84.12 35.66 112 36 C112 42.6 112 49.2 112 56 C100.12562267 56.15826938 88.25194802 56.28664008 76.37675381 56.3626852 C70.86234223 56.39918683 65.34869086 56.44868181 59.8347168 56.52807617 C54.51136388 56.60424443 49.1887412 56.64601338 43.86488533 56.6641407 C41.83585173 56.67705534 39.80685723 56.70227567 37.7781353 56.7401104 C34.931215 56.79108308 32.08729487 56.79791753 29.23999023 56.79467773 C27.98733871 56.83242813 27.98733871 56.83242813 26.7093811 56.87094116 C21.94787544 56.81247893 19.51720014 56.03972936 16.05873108 52.67567444 C13.02600955 49.30850205 11.06152535 45.90419067 9.125 41.8125 C8.68414062 40.90854492 8.68414062 40.90854492 8.234375 39.98632812 C5.74773768 34.79062492 4.86924551 30.98337698 4.9375 25.25 C4.94652344 24.26515625 4.95554687 23.2803125 4.96484375 22.265625 C4.97644531 21.51796875 4.98804687 20.7703125 5 20 C3.35 20 1.7 20 0 20 C0 13.4 0 6.8 0 0 Z " fill="#FFC5C5" transform="translate(80,200)"/>
<path d="M0 0 C30.36 0 60.72 0 92 0 C92 6.6 92 13.2 92 20 C70.22 20.33 48.44 20.66 26 21 C24.32511124 31.04933258 24.307974 41.615948 29 51 C49.79 51.33 70.58 51.66 92 52 C92 58.6 92 65.2 92 72 C82.19454906 72.22612443 72.39083476 72.40948706 62.58336449 72.51812172 C58.02903611 72.5702678 53.47658663 72.64095682 48.92333984 72.75439453 C44.52707175 72.86323309 40.13260746 72.92287564 35.73509598 72.94877243 C34.05953181 72.96721978 32.38406419 73.00324877 30.70927048 73.05730057 C17.57537461 73.46423492 17.57537461 73.46423492 13.66040039 69.82545471 C12.08695337 67.25070854 10.99065194 64.84343436 10 62 C9.46890625 60.89011719 8.9378125 59.78023437 8.390625 58.63671875 C3.49446801 45.97713476 1.72077513 33.3904461 4 20 C2.68 20 1.36 20 0 20 C0 13.4 0 6.8 0 0 Z " fill="#FF8C8C" transform="translate(212,124)"/>
<path d="M0 0 C25.08 0 50.16 0 76 0 C76 22.22711263 75.1328869 34.49526636 60.375 50.1875 C54.83499605 55.48371015 48.71047874 59.34642631 42 63 C41.11699219 63.48339844 40.23398438 63.96679688 39.32421875 64.46484375 C26.85388784 70.69054765 13.78563121 72.58044763 0 72 C0 64.08 0 56.16 0 48 C2.5575 47.5875 5.115 47.175 7.75 46.75 C18.72876174 44.84411803 27.95941436 42.37594991 36.94140625 35.48828125 C39 34 39 34 42 33 C42.66 31.68 43.32 30.36 44 29 C45.65 26.36 47.3 23.72 49 21 C24.745 20.505 24.745 20.505 0 20 C0 13.4 0 6.8 0 0 Z " fill="#FFC5C5" transform="translate(68,124)"/>
<path d="M0 0 C6.6 0 13.2 0 20 0 C20 23.76 20 47.52 20 72 C13.4 72 6.8 72 0 72 C0 60.78 0 49.56 0 38 C-2.97 39.32 -5.94 40.64 -9 42 C-15.92471114 44.23377779 -20.17126199 44 -28 44 C-28 36.08 -28 28.16 -28 20 C-25.89625 19.46375 -23.7925 18.9275 -21.625 18.375 C-13.88569513 16.25466726 -5.28401061 13.24787294 -1 6 C-0.67 4.02 -0.34 2.04 0 0 Z " fill="#FFC6C6" transform="translate(176,124)"/>
<path d="M0 0 C6.6 0 13.2 0 20 0 C20 2.64 20 5.28 20 8 C25.28 9.32 30.56 10.64 36 12 C36 19.92 36 27.84 36 36 C25 36 25 36 21 35 C20.67 47.21 20.34 59.42 20 72 C13.4 72 6.8 72 0 72 C0 48.24 0 24.48 0 0 Z " fill="#FF8D8D" transform="translate(308,124)"/>
<path d="M0 0 C6.6 0 13.2 0 20 0 C20 18.48 20 36.96 20 56 C13.4 56 6.8 56 0 56 C0 48.41 0 40.82 0 33 C-2.97 32.34 -5.94 31.68 -9 31 C-12.00109379 28.50973069 -13.84336244 26.23495634 -16 23 C-16 21.02 -16 19.04 -16 17 C-11.05 16.67 -6.1 16.34 -1 16 C-0.67 10.72 -0.34 5.44 0 0 Z " fill="#FFC6C6" transform="translate(224,200)"/>
<path d="M0 0 C0.33 0 0.66 0 1 0 C1 10.56 1 21.12 1 32 C-10.11208883 36.93870615 -14.67995703 38 -27 38 C-27 30.08 -27 22.16 -27 14 C-24.89625 13.46375 -22.7925 12.9275 -20.625 12.375 C-12.40188246 10.12211739 -5.050646 7.08005964 0 0 Z " fill="#FF8C8C" transform="translate(175,130)"/>
<path d="M0 0 C5.28 1.32 10.56 2.64 16 4 C16 11.92 16 19.84 16 28 C5 28 5 28 0 26 C0 17.42 0 8.84 0 0 Z " fill="#FFC5C5" transform="translate(328,132)"/>
<path d="M0 0 C0 5.61 0 11.22 0 17 C-6.35987085 15.9558421 -9.80732636 15.20907937 -14 10 C-16.29013653 6.5647952 -16.17842973 5.014669 -16 1 C-13.52085964 0.83293398 -11.04168987 0.66632824 -8.5625 0.5 C-7.85544922 0.45230469 -7.14839844 0.40460938 -6.41992188 0.35546875 C-1.11328125 0 -1.11328125 0 0 0 Z " fill="#FF8C8C" transform="translate(224,216)"/>
</svg>
