<svg width="62" height="62" viewBox="0 0 62 62" fill="none" xmlns="http://www.w3.org/2000/svg">
<circle cx="31" cy="31" r="30" fill="#EBEBEB" stroke="#868782" stroke-width="2"/>
<path fill-rule="evenodd" clip-rule="evenodd" d="M41 27.667C41 22.1441 36.5228 17.667 31 17.667C25.4772 17.667 21 22.1441 21 27.667C21.0001 31.0832 22.7136 34.0988 25.3277 35.9026C25.6022 36.092 25.7395 36.1867 25.8281 36.2941C25.9167 36.4014 25.9709 36.5248 26.0791 36.7716C26.3059 37.2884 26.5091 37.8144 26.6882 38.3481C29.5002 39.1826 32.4989 39.1827 35.311 38.3483C35.49 37.8146 35.6932 37.2885 35.9199 36.7717C36.0281 36.5249 36.0823 36.4015 36.1709 36.2941C36.2596 36.1867 36.3969 36.092 36.6715 35.9026L36.6715 35.9026C39.2859 34.0989 40.9999 31.0835 41 27.667ZM34.714 40.568C32.2685 41.11 29.7311 41.1099 27.2855 40.5677C27.456 41.4007 27.5701 42.2461 27.6263 43.0982C27.6681 43.7313 27.6889 44.0478 27.8363 44.2696C27.9836 44.4914 28.2465 44.6229 28.7721 44.8859L29.2109 45.1055C30.337 45.6685 31.663 45.6685 32.7891 45.1055L33.2279 44.8859C33.7536 44.6229 34.0164 44.4914 34.1637 44.2696C34.3111 44.0478 34.3319 43.7312 34.3736 43.0982C34.4298 42.2462 34.5438 41.401 34.714 40.568Z" fill="#F3A5B2"/>
</svg>
