<svg width="40" height="40" viewBox="0 0 40 40" fill="none" xmlns="http://www.w3.org/2000/svg">
<g id="Lamp_fill">
<path id="Subtract" fill-rule="evenodd" clip-rule="evenodd" d="M30 16.667C30 11.1441 25.5228 6.66699 20 6.66699C14.4772 6.66699 10 11.1441 10 16.667C10.0001 20.0832 11.7136 23.0988 14.3277 24.9026C14.6022 25.092 14.7395 25.1867 14.8281 25.2941C14.9167 25.4014 14.9709 25.5248 15.0791 25.7716C15.3059 26.2884 15.5091 26.8144 15.6882 27.3481C18.5002 28.1826 21.4989 28.1827 24.311 27.3483C24.49 26.8146 24.6932 26.2885 24.9199 25.7717C25.0281 25.5249 25.0823 25.4015 25.1709 25.2941C25.2596 25.1867 25.3969 25.092 25.6715 24.9026C28.2859 23.0989 29.9999 20.0835 30 16.667ZM23.714 29.568C21.2685 30.11 18.7311 30.1099 16.2855 29.5677C16.456 30.4007 16.5701 31.2461 16.6263 32.0982C16.6681 32.7313 16.6889 33.0478 16.8363 33.2696C16.9836 33.4914 17.2465 33.6229 17.7721 33.8859L18.2109 34.1055C19.337 34.6685 20.663 34.6685 21.7891 34.1055L22.2279 33.8859C22.7536 33.6229 23.0164 33.4914 23.1637 33.2696C23.3111 33.0478 23.3319 32.7312 23.3736 32.0982C23.4298 31.2462 23.5438 30.401 23.714 29.568Z" fill="#F3A5B2"/>
</g>
</svg>
