<svg width="222" height="222" viewBox="0 0 222 222" fill="none" xmlns="http://www.w3.org/2000/svg">
<path d="M111.5 68C137.9 68 161 86.5626 161 114.406C161 148.83 116.476 170.831 111.882 173.01C111.621 173.133 111.379 173.133 111.118 173.01C106.524 170.831 62 148.83 62 114.406C62.0001 86.5626 85.9845 68 111.5 68Z" fill="url(#paint0_radial_2189_466)"/>
<path d="M111.387 76C133.993 76 153.774 91.8955 153.774 115.738C153.774 145.054 116.064 163.848 111.781 165.888C111.521 166.012 111.254 166.012 110.993 165.888C106.711 163.848 69.0001 145.054 69 115.738C69 91.8957 89.5377 76.0002 111.387 76Z" fill="#FAFFEE" fill-opacity="0.4"/>
<mask id="mask0_2189_466" style="mask-type:alpha" maskUnits="userSpaceOnUse" x="76" y="100" width="19" height="19">
<rect x="76" y="100" width="19" height="19" fill="#D9D9D9"/>
</mask>
<g mask="url(#mask0_2189_466)">
<path d="M76 91C85.5363 91 92 96.9948 92 103C92 109.005 85.5363 115 76 115C66.4637 115 60 109.005 60 103C60 96.9948 66.4637 91 76 91Z" stroke="#FFC6C6" stroke-width="6"/>
</g>
<rect x="76" y="100" width="19" height="5" fill="#FFC6C6"/>
<mask id="mask1_2189_466" style="mask-type:alpha" maskUnits="userSpaceOnUse" x="96" y="100" width="12" height="17">
<rect x="96.5" y="100.5" width="11" height="16" fill="#D9D9D9" stroke="#FF8D8D"/>
</mask>
<g mask="url(#mask1_2189_466)">
<circle cx="96" cy="96" r="12" stroke="#FF8D8D" stroke-width="6"/>
</g>
<rect x="108" y="100" width="18" height="5" transform="rotate(90 108 100)" fill="#FFC6C6"/>
<mask id="mask2_2189_466" style="mask-type:alpha" maskUnits="userSpaceOnUse" x="79" y="119" width="28" height="14">
<rect x="79.5" y="119.5" width="27" height="13" fill="#D9D9D9" stroke="#FF8D8D"/>
</mask>
<g mask="url(#mask2_2189_466)">
<path d="M100.333 114.5C105.439 114.5 109.947 115.863 113.104 117.935C116.282 120.02 117.833 122.615 117.833 125.125C117.833 127.635 116.282 130.23 113.104 132.315C109.947 134.387 105.439 135.75 100.333 135.75C95.2273 135.75 90.7193 134.387 87.5627 132.315C84.385 130.23 82.8333 127.635 82.8333 125.125C82.8333 122.615 84.385 120.02 87.5627 117.935C90.7193 115.863 95.2273 114.5 100.333 114.5Z" stroke="#FFC6C6" stroke-width="5"/>
</g>
<rect x="79.5" y="119.5" width="27" height="4" fill="#FFC6C6" stroke="#FFC6C6"/>
<rect x="85.5" y="128.5" width="21" height="4" fill="#FFC6C6" stroke="#FFC6C6"/>
<mask id="mask3_2189_466" style="mask-type:alpha" maskUnits="userSpaceOnUse" x="112" y="100" width="23" height="18">
<rect x="112" y="100" width="23" height="18" fill="#D9D9D9"/>
</mask>
<g mask="url(#mask3_2189_466)">
<path d="M129.387 93.5C137.017 93.5001 143.316 99.8723 143.316 107.875C143.316 115.878 137.017 122.25 129.387 122.25C121.757 122.25 115.458 115.878 115.458 107.875C115.458 99.8723 121.757 93.5 129.387 93.5Z" stroke="#FF8D8D" stroke-width="5"/>
</g>
<rect x="112" y="100" width="23" height="5" fill="#FF8D8D"/>
<rect x="119" y="113" width="16" height="5" fill="#FF8D8D"/>
<mask id="mask4_2189_466" style="mask-type:alpha" maskUnits="userSpaceOnUse" x="137" y="101" width="8" height="14">
<rect x="-0.5" y="0.5" width="7" height="13" transform="matrix(-1 0 0 1 144 101)" fill="#D9D9D9" stroke="#FF8D8D"/>
</mask>
<g mask="url(#mask4_2189_466)">
<circle cx="15" cy="15" r="12" transform="matrix(-1 0 0 1 160 79)" stroke="#FFC6C6" stroke-width="6"/>
</g>
<rect x="141" y="100" width="18" height="5" transform="rotate(90 141 100)" fill="#FF8D8D"/>
<rect x="121" y="129" width="22" height="4" fill="#FF8D8D"/>
<path d="M113 123.33C113 129.267 136.597 118.383 139.897 123.33C143.196 128.277 131.883 131 131.883 131" stroke="#FF8D8D" stroke-width="4"/>
<rect x="120" y="119" width="14" height="5" transform="rotate(90 120 119)" fill="#FFC6C6"/>
<line x1="83.9815" y1="141" x2="137.981" y2="140" stroke="#F3A5B2" stroke-width="2"/>
<defs>
<radialGradient id="paint0_radial_2189_466" cx="0" cy="0" r="1" gradientUnits="userSpaceOnUse" gradientTransform="translate(111.5 120.551) rotate(87.7297) scale(50.4884 47.5569)">
<stop offset="0.745192" stop-color="#FAFFEE"/>
<stop offset="1" stop-color="#F79AA2"/>
</radialGradient>
</defs>
</svg>
