<svg width="24" height="25" viewBox="0 0 24 25" fill="none" xmlns="http://www.w3.org/2000/svg">
<g id="Pin_alt_fill">
<path id="Subtract" d="M12 2.5C15.866 2.5 19 5.63401 19 9.5C19 14.5159 13.8819 17.5342 12.3984 18.3037C12.1456 18.4349 11.8544 18.4349 11.6016 18.3037C10.1181 17.5342 5 14.5159 5 9.5C5 5.63401 8.13401 2.5 12 2.5ZM12 6.5C10.3431 6.5 9 7.84315 9 9.5C9 11.1569 10.3431 12.5 12 12.5C13.6569 12.5 15 11.1569 15 9.5C15 7.84315 13.6569 6.5 12 6.5Z" fill="#F3A5B2"/>
<path id="Ellipse 40" d="M18.0622 17C18.6766 17.4561 19 17.9734 19 18.5C19 19.0266 18.6766 19.5439 18.0622 20C17.4478 20.4561 16.5641 20.8348 15.5 21.0981C14.4359 21.3614 13.2288 21.5 12 21.5C10.7712 21.5 9.56414 21.3614 8.5 21.0981C7.43587 20.8348 6.5522 20.4561 5.93782 20C5.32344 19.5439 5 19.0266 5 18.5C5 17.9734 5.32344 17.4561 5.93782 17" stroke="#F3A5B2" stroke-width="2" stroke-linecap="round"/>
</g>
</svg>
