<svg width="20" height="20" viewBox="0 0 20 20" fill="none" xmlns="http://www.w3.org/2000/svg">
<g id="icnSearch">
<path id="Union" d="M9 1C12.866 1 16 4.13401 16 8C16 9.70021 15.3928 11.258 14.3848 12.4707L18.207 16.293L18.2754 16.3691C18.5957 16.7619 18.5731 17.3409 18.207 17.707C17.8409 18.0731 17.2619 18.0957 16.8691 17.7754L16.793 17.707L12.8994 13.8135C11.785 14.5625 10.4437 15 9 15C5.13401 15 2 11.866 2 8C2 4.13401 5.13401 1 9 1ZM9 2.5C5.96243 2.5 3.5 4.96243 3.5 8C3.5 11.0376 5.96243 13.5 9 13.5C12.0376 13.5 14.5 11.0376 14.5 8C14.5 4.96243 12.0376 2.5 9 2.5Z" fill="#6C6C6C"/>
</g>
</svg>
