<svg width="25" height="24" viewBox="0 0 25 24" fill="none" xmlns="http://www.w3.org/2000/svg">
<g id="directions_walk">
<path id="icon" d="M7.5 23L10.3 8.9L8.5 9.6V13H6.5V8.3L11.55 6.15C11.7833 6.05 12.0292 5.99167 12.2875 5.975C12.5458 5.95833 12.7917 5.99167 13.025 6.075C13.2583 6.15833 13.4792 6.275 13.6875 6.425C13.8958 6.575 14.0667 6.76667 14.2 7L15.2 8.6C15.6333 9.3 16.2208 9.875 16.9625 10.325C17.7042 10.775 18.55 11 19.5 11V13C18.3333 13 17.2917 12.7583 16.375 12.275C15.4583 11.7917 14.675 11.175 14.025 10.425L13.4 13.5L15.5 15.5V23H13.5V16.5L11.4 14.9L9.6 23H7.5ZM14 5.5C13.45 5.5 12.9792 5.30417 12.5875 4.9125C12.1958 4.52083 12 4.05 12 3.5C12 2.95 12.1958 2.47917 12.5875 2.0875C12.9792 1.69583 13.45 1.5 14 1.5C14.55 1.5 15.0208 1.69583 15.4125 2.0875C15.8042 2.47917 16 2.95 16 3.5C16 4.05 15.8042 4.52083 15.4125 4.9125C15.0208 5.30417 14.55 5.5 14 5.5Z" fill="#F7F7F6"/>
</g>
</svg>
